<svg height="52" viewBox="0 0 173 52" width="173" xmlns="http://www.w3.org/2000/svg"><g fill="#fff"><path d="m4.4042969 49h-2.2128906l6.6601562-31.410156h15.2109375l-.429688 2.019531h-12.976562l-2.8789063 13.320312h12.2460933l-.451171 2.041016h-12.2246098z"/><path d="m23.246094 49 6.660156-31.410156h2.191406l-6.208984 29.347656h13.341797l-.494141 2.0625z"/><path d="m58.544922 37.828125h-11l-6.166016 11.171875h-2.513672l17.660157-31.539063h1.439453l4.318359 31.539063h-2.255859zm-.257813-1.976563-.83789-6.251953c-.444026-3.466123-.723323-6.345026-.837891-8.636718-.429702.902371-.895197 1.833359-1.396484 2.792968-.486993.95966-2.678397 4.991557-6.574219 12.095703z"/><path d="m118.29102 49h-2.14844l3.24414-15.447266h-16.32813l-3.20117 15.447266h-2.21289l6.66016-31.410156h2.1914l-2.98632 13.943359h16.32812l2.94336-13.943359h2.14844z"/><path d="m142.6543 49h-15.61914l6.66015-31.410156h15.61914l-.45117 2.019531h-13.40625l-2.51367 11.880859h12.67578l-.45117 2.019532h-12.63281l-2.90039 13.470703h13.4707z"/><path d="m167.01758 40.341797c-.00002 1.804694-.47268 3.416021-1.41797 4.833984-.93101 1.403649-2.21291 2.463543-3.8457 3.179688-1.63283.716146-3.55926 1.074218-5.7793 1.074218-1.26042 0-2.49936-.121745-3.7168-.365234-1.20313-.243489-2.42773-.658853-3.67383-1.246094v-2.341797c2.33464 1.317711 4.82682 1.976565 7.47657 1.976563 2.69269.000002 4.80532-.615883 6.33789-1.847656 1.54686-1.246089 2.32029-2.914707 2.32031-5.00586-.00002-.873688-.12176-1.618479-.36523-2.234375-.24351-.630197-.62307-1.195951-1.13868-1.697265-.50131-.50129-1.15301-.988268-1.95507-1.460938-.78778-.472642-1.72593-1.009751-2.81446-1.611328-2.14844-1.088525-3.65235-2.263003-4.51172-3.523437-.84505-1.260397-1.26758-2.735656-1.26757-4.425782-.00001-1.690079.42252-3.172499 1.26757-4.447265.84505-1.289034 2.02669-2.284475 3.54493-2.986328 1.51821-.716115 3.21548-1.074187 5.09179-1.074219 1.41796.000032 2.70702.128938 3.86719.386719 1.16014.24352 2.36326.673208 3.60937 1.289062l-.6875 2.019531c-.94533-.572888-2.03387-1.024059-3.26562-1.353515-1.21747-.329397-2.39194-.494111-3.52344-.494141-2.33465.00003-4.19662.594431-5.58594 1.783203-1.375 1.174506-2.0625 2.735703-2.0625 4.683594 0 1.475282.35091 2.692729 1.05274 3.652344.70181.959654 2.0052 1.912127 3.91016 2.857422 2.20571 1.131526 3.7311 2.062515 4.57617 2.792968.85935.730483 1.49672 1.539727 1.91211 2.427735.42967.888032.64451 1.940765.64453 3.158203"/><path d="m79.99 30.09c3.8 0 7.52-3.66 8.94-6.74l-.15-.14c-1.04.73-2.61 1.02-4.02 1.02-4.03 0-8.05-2.56-10.67-5.42-1.11.51-1.34 1.83-1.34 2.93 0 3.88 2.91 8.35 7.24 8.35zm1.86 1.32c-4.1 0-8.13 3.44-9.77 7.1 5.74 0 11.11 2.28 15.96 5.28.82-1.03 1.04-2.42 1.04-3.66 0-4.4-2.31-8.72-7.23-8.72zm-12.61-20.51c.16-6.22 5.67-10.18 12.83-10.18 7.01 0 13.5 4.61 13.5 11.94 0 7.03-5 7.84-5.74 11.13 4.02.73 7.31 4.25 7.31 8.35 0 8.65-7.31 8.86-14.55 19.56-2.98-2.05-10.44-4.4-13.94-4.4-1.87 0-2.84.74-3.73 2.28l-.97-.52c2.76-3.51 5.29-7.32 7.23-11.35-3.65-1.76-6.48-4.25-6.48-8.57 0-8.79 11.63-10.84 14.76-18.16 1.86 2.19 4.33 4.02 7.23 4.02 3.14 0 6.19-1.61 6.19-5.2 0-5.49-6.63-7.76-10.81-7.76-5.35 0-9.98 2.71-11.2 7.23-.14.52-.24 1.06-.28 1.63zm1.35 0h-1.35zm0 0" fill-rule="evenodd"/></g></svg>