<svg width="22" height="22" xmlns="http://www.w3.org/2000/svg"><g id="Artboard" stroke="none" stroke-width="1" fill="none" fill-rule="evenodd"><g id="icons8-mail" transform="translate(0 4)" fill="#000" fill-rule="nonzero"><path d="M2.2 0C.994 0 0 .994 0 2.2v10.267c0 1.206.994 2.2 2.2 2.2h17.6c1.206 0 2.2-.994 2.2-2.2V2.2C22 .994 21.006 0 19.8 0H2.2zm.304 1.467h16.99l-6.53 6.52a2.776 2.776 0 01-3.94 0l-6.52-6.52zm18.03 1.035v9.662l-4.839-4.83 4.838-4.832zm-19.067.002l4.83 4.83-4.83 4.829v-9.66zm13.191 5.865l4.838 4.831H2.504l4.83-4.83.652.653A4.264 4.264 0 0014 9.026l.66-.657z" id="Shape"/></g></g></svg>