<svg width="21" height="21" xmlns="http://www.w3.org/2000/svg"><g id="DEFINITIVI" stroke="none" stroke-width="1" fill="none" fill-rule="evenodd"><g id="Desktop-Copy-12" transform="translate(-235 -702)" fill="#000" fill-rule="nonzero"><g id="Group-3" transform="translate(224 145)"><g id="Group-5" transform="translate(-4 539)"><g id="Group-4" transform="translate(13 17)"><g id="ICN-man" transform="translate(2 1.917)"><g id="Combined-Shape-2"><path d="M10.05 0c2.75 0 5 2.156 5 4.792 0 2.635-2.25 4.791-5 4.791s-5-2.156-5-4.791C5.05 2.156 7.3 0 10.05 0zm0 2.361c-1.39 0-2.536 1.1-2.536 2.43 0 1.332 1.147 2.431 2.536 2.431 1.39 0 2.536-1.099 2.536-2.43 0-1.332-1.147-2.43-2.536-2.43zm0 8.42c4.727 0 10.05 2.012 10.05 5.372v3.014h-2.5v-3.014c0-1.428-4.096-2.976-7.55-2.976-3.454 0-7.55 1.548-7.55 2.976v3.014H0v-3.014c0-3.36 5.323-5.372 10.05-5.372z" id="Combined-Shape"/></g></g></g></g></g></g></g></svg>