<svg width="16" height="22" xmlns="http://www.w3.org/2000/svg"><g id="DEFINITIVI" stroke="none" stroke-width="1" fill="none" fill-rule="evenodd"><g id="Desktop-Copy-12" transform="translate(-237 -514)" fill="#000"><g id="Group-3" transform="translate(224 145)"><g id="Group-7" transform="translate(-4 352)"><path d="M25 30.895c1.943 0 3.429-1.506 3.429-3.474v-6.947C28.429 18.505 26.943 17 25 17c-1.943 0-3.429 1.505-3.429 3.474v6.947c0 1.968 1.486 3.474 3.429 3.474zm6.057-3.474c0 3.474-2.857 5.905-6.057 5.905s-6.057-2.431-6.057-5.905H17c0 3.937 3.086 7.179 6.857 7.758V39h2.286v-3.821C29.914 34.6 33 31.358 33 27.42h-1.943z" id="Shape"/></g></g></g></g></svg>