<svg width="21" height="21" xmlns="http://www.w3.org/2000/svg"><g id="DEFINITIVI" stroke="none" stroke-width="1" fill="none" fill-rule="evenodd"><g id="Desktop-Copy-12" transform="translate(-235 -160)" fill="#000"><g id="Group-3" transform="translate(224 145)"><g id="Group-6" transform="translate(11 15)"><path d="M10.5 0C4.725 0 0 4.725 0 10.5S4.725 21 10.5 21 21 16.275 21 10.5 16.275 0 10.5 0zM9.45 18.795C5.355 18.27 2.1 14.7 2.1 10.5c0-.63.105-1.26.21-1.89l5.04 5.04v1.05c0 1.155.945 2.1 2.1 2.1v1.995zm7.245-2.625c-.315-.84-1.05-1.47-1.995-1.47h-1.05v-3.15c0-.63-.42-1.05-1.05-1.05H6.3V8.4h2.1c.63 0 1.05-.42 1.05-1.05v-2.1h2.1c1.155 0 2.1-.945 2.1-2.1v-.42c3.045 1.26 5.25 4.305 5.25 7.77 0 2.205-.84 4.2-2.205 5.67z" id="Shape"/></g></g></g></g></svg>